<svg aria-hidden="true" style="width:0;height:0;position:absolute" xmlns="http://www.w3.org/2000/svg" overflow="hidden"><defs><symbol id="close-btn" viewBox="0 0 24 24"><path d="M18 6 6 18M6 6l12 12" stroke="#111" stroke-width="2" stroke-linecap="round" stroke-linejoin="round"/></symbol><symbol id="flag-icon" viewBox="0 0 24 19"><path d="M23.874.294H.182v17.631h23.692V.294Z" fill="gold"/><path fill-rule="evenodd" clip-rule="evenodd" d="M.182.294h23.692V9.11H.182V.294Z" fill="#0057B7"/></symbol><symbol id="visa-icon" viewBox="0 0 32 20"><path fill-rule="evenodd" clip-rule="evenodd" d="M16 16.834a9.083 9.083 0 0 1-5.935 2.199c-5.054 0-9.15-4.12-9.15-9.204 0-5.083 4.096-9.204 9.15-9.204 2.264 0 4.337.828 5.935 2.199A9.083 9.083 0 0 1 21.935.625c5.054 0 9.15 4.12 9.15 9.204 0 5.083-4.096 9.204-9.15 9.204A9.083 9.083 0 0 1 16 16.834Z" fill="#ED0006"/><path fill-rule="evenodd" clip-rule="evenodd" d="M16 16.834a9.206 9.206 0 0 0 3.215-7.005A9.206 9.206 0 0 0 16 2.824 9.083 9.083 0 0 1 21.935.625c5.054 0 9.15 4.12 9.15 9.204 0 5.083-4.096 9.204-9.15 9.204A9.083 9.083 0 0 1 16 16.834Z" fill="#F9A000"/><path fill-rule="evenodd" clip-rule="evenodd" d="M16 16.834a9.206 9.206 0 0 0 3.215-7.005A9.206 9.206 0 0 0 16 2.824a9.206 9.206 0 0 0-3.215 7.005A9.205 9.205 0 0 0 16 16.834Z" fill="#FF5E00"/></symbol></defs></svg>